<?xml version="1.0" encoding="UTF-8" standalone="no"?>
<svg
   xmlns:dc="http://purl.org/dc/elements/1.1/"
   xmlns:cc="http://creativecommons.org/ns#"
   xmlns:rdf="http://www.w3.org/1999/02/22-rdf-syntax-ns#"
   xmlns:svg="http://www.w3.org/2000/svg"
   xmlns="http://www.w3.org/2000/svg"
   viewBox="0 0 1129.712 193.37733"
   height="193.37733"
   width="1129.712"
   xml:space="preserve"
   id="svg2"
   version="1.1"><metadata
     id="metadata8"><rdf:RDF><cc:Work
         rdf:about=""><dc:format>image/svg+xml</dc:format><dc:type
           rdf:resource="http://purl.org/dc/dcmitype/StillImage" /></cc:Work></rdf:RDF></metadata><defs
     id="defs6"><clipPath
       id="clipPath18"
       clipPathUnits="userSpaceOnUse"><path
         id="path16"
         d="M 0,145.033 H 847.284 V 0 H 0 Z" /></clipPath></defs><g
     transform="matrix(1.3333333,0,0,-1.3333333,0,193.37733)"
     id="g10"><g
       id="g12"><g
         clip-path="url(#clipPath18)"
         id="g14"><g
           transform="translate(14.5826,3.9609)"
           id="g20"><path
             id="path22"
             style="fill:#ffffff;fill-opacity:1;fill-rule:nonzero;stroke:none"
             d="m 0,0 c -0.343,-0.79 -0.812,-1.465 -1.407,-2.061 -0.601,-0.594 -1.3,-1.064 -2.095,-1.396 -0.808,-0.332 -1.66,-0.504 -2.57,-0.504 h -1.906 c -0.911,0 -1.768,0.172 -2.57,0.504 -0.802,0.332 -1.511,0.802 -2.105,1.396 -0.602,0.596 -1.072,1.271 -1.41,2.061 -0.342,0.79 -0.52,1.637 -0.52,2.529 v 14.206 c 0,0.905 0.178,1.74 0.52,2.53 0.338,0.79 0.808,1.477 1.41,2.06 0.594,0.596 1.303,1.065 2.105,1.398 0.802,0.342 1.659,0.514 2.57,0.514 h 1.906 c 0.91,0 1.762,-0.172 2.57,-0.514 0.795,-0.333 1.494,-0.802 2.095,-1.398 0.595,-0.583 1.064,-1.27 1.407,-2.06 0.344,-0.79 0.516,-1.625 0.516,-2.53 v -1.076 l -2.415,-0.354 v 1.43 c 0,0.595 -0.109,1.145 -0.344,1.649 -0.212,0.514 -0.527,0.962 -0.909,1.339 -0.391,0.389 -0.842,0.686 -1.364,0.904 -0.508,0.229 -1.07,0.332 -1.665,0.332 h -1.688 c -0.602,0 -1.156,-0.103 -1.671,-0.332 -0.516,-0.218 -0.968,-0.515 -1.362,-0.904 -0.396,-0.377 -0.71,-0.825 -0.928,-1.339 -0.229,-0.504 -0.332,-1.054 -0.332,-1.649 V 2.529 c 0,-0.584 0.103,-1.144 0.332,-1.647 0.218,-0.516 0.532,-0.962 0.928,-1.352 0.394,-0.388 0.846,-0.698 1.362,-0.915 0.515,-0.218 1.069,-0.321 1.671,-0.321 h 1.688 c 0.595,0 1.157,0.103 1.665,0.321 0.522,0.217 0.973,0.527 1.364,0.915 0.382,0.39 0.697,0.836 0.909,1.352 0.235,0.503 0.344,1.063 0.344,1.647 V 3.972 L 0.516,3.571 V 2.529 C 0.516,1.637 0.344,0.79 0,0" /></g><g
           transform="translate(54.9224,6.4902)"
           id="g24"><path
             id="path26"
             style="fill:#ffffff;fill-opacity:1;fill-rule:nonzero;stroke:none"
             d="M 0,0 C 0,-0.893 -0.178,-1.739 -0.538,-2.529 -0.91,-3.319 -1.408,-3.994 -2.015,-4.59 -2.639,-5.185 -3.36,-5.654 -4.173,-5.986 -4.985,-6.318 -5.85,-6.49 -6.76,-6.49 h -1.928 c -0.911,0 -1.775,0.172 -2.587,0.504 -0.819,0.332 -1.535,0.801 -2.158,1.396 -0.613,0.596 -1.105,1.271 -1.477,2.061 -0.366,0.79 -0.549,1.636 -0.549,2.529 v 1.042 l 2.409,0.4 V 0 c 0,-0.584 0.132,-1.145 0.372,-1.647 0.24,-0.516 0.567,-0.962 0.985,-1.352 0.4,-0.389 0.875,-0.698 1.419,-0.915 0.549,-0.218 1.122,-0.321 1.717,-0.321 h 1.683 c 0.596,0 1.167,0.103 1.705,0.321 0.527,0.217 1.008,0.526 1.414,0.915 0.412,0.39 0.744,0.836 0.984,1.352 0.252,0.502 0.378,1.063 0.378,1.647 v 0.79 c 0,0.916 -0.189,1.672 -0.549,2.278 -0.367,0.595 -0.842,1.111 -1.443,1.545 -0.595,0.412 -1.281,0.779 -2.037,1.076 -0.744,0.287 -1.534,0.584 -2.323,0.881 -0.796,0.298 -1.568,0.619 -2.33,0.986 -0.762,0.342 -1.426,0.8 -2.027,1.328 -0.6,0.538 -1.082,1.189 -1.436,1.968 -0.372,0.778 -0.544,1.717 -0.544,2.862 v 0.492 c 0,0.904 0.161,1.739 0.516,2.529 0.343,0.79 0.806,1.478 1.407,2.061 0.601,0.596 1.305,1.064 2.1,1.397 0.808,0.343 1.672,0.515 2.571,0.515 h 1.728 c 0.91,0 1.763,-0.172 2.553,-0.515 0.807,-0.333 1.505,-0.801 2.101,-1.397 0.6,-0.583 1.076,-1.271 1.419,-2.061 0.332,-0.79 0.503,-1.625 0.503,-2.529 V 13.53 l -2.404,-0.4 v 1.076 c 0,0.595 -0.114,1.145 -0.349,1.648 -0.222,0.515 -0.514,0.962 -0.916,1.339 -0.376,0.39 -0.83,0.687 -1.35,0.905 -0.515,0.229 -1.075,0.332 -1.671,0.332 h -1.494 c -0.595,0 -1.161,-0.103 -1.683,-0.332 -0.51,-0.218 -0.962,-0.515 -1.356,-0.905 -0.395,-0.377 -0.704,-0.824 -0.939,-1.339 -0.212,-0.503 -0.326,-1.053 -0.326,-1.648 v -0.492 c 0,-0.859 0.171,-1.568 0.543,-2.141 0.361,-0.584 0.836,-1.088 1.442,-1.488 0.602,-0.412 1.278,-0.767 2.021,-1.076 0.762,-0.297 1.54,-0.607 2.336,-0.915 0.801,-0.322 1.573,-0.664 2.329,-1.042 0.75,-0.366 1.425,-0.836 2.025,-1.374 0.602,-0.55 1.082,-1.213 1.443,-2.015 C -0.178,2.885 0,1.924 0,0.79 Z" /></g><g
           transform="translate(92.5591,20.3075)"
           id="g28"><path
             id="path30"
             style="fill:#ffffff;fill-opacity:1;fill-rule:nonzero;stroke:none"
             d="m 0,0 c 0,0.595 -0.108,1.145 -0.331,1.647 -0.235,0.516 -0.538,0.962 -0.928,1.352 -0.394,0.389 -0.852,0.697 -1.368,0.915 -0.526,0.218 -1.081,0.332 -1.677,0.332 h -5.964 v -21.921 h 5.964 c 0.596,0 1.151,0.115 1.677,0.332 0.516,0.229 0.974,0.527 1.368,0.905 0.39,0.389 0.693,0.824 0.928,1.339 0.223,0.515 0.331,1.064 0.331,1.648 z m 1.9,-15.969 c -0.342,-0.79 -0.812,-1.488 -1.408,-2.072 -0.6,-0.595 -1.299,-1.054 -2.111,-1.396 -0.802,-0.333 -1.666,-0.504 -2.57,-0.504 h -8.494 V 6.523 h 8.494 c 0.904,0 1.768,-0.17 2.57,-0.513 C -0.807,5.666 -0.108,5.208 0.492,4.612 1.088,4.029 1.558,3.33 1.9,2.541 2.244,1.751 2.404,0.893 2.404,0 v -13.451 c 0,-0.893 -0.16,-1.739 -0.504,-2.518" /></g><g
           transform="translate(165.5738,0.3661)"
           id="g32"><path
             id="path34"
             style="fill:#ffffff;fill-opacity:1;fill-rule:nonzero;stroke:none"
             d="M 0,0 V 18.133 L -0.166,17.011 -6.404,0 h -1.271 l -6.273,17.011 -0.166,1.122 V 0 h -2.398 v 26.465 h 1.247 l 8.139,-21.703 0.08,-0.973 0.069,0.973 8.122,21.703 h 1.27 L 2.415,0 Z" /></g><g
           transform="translate(206.1588,20.6962)"
           id="g36"><path
             id="path38"
             style="fill:#ffffff;fill-opacity:1;fill-rule:nonzero;stroke:none"
             d="M 0,0 C 0,0.595 -0.12,1.145 -0.338,1.648 -0.572,2.163 -0.87,2.61 -1.253,2.987 -1.648,3.377 -2.089,3.674 -2.615,3.892 -3.131,4.121 -3.686,4.224 -4.293,4.224 H -5.976 C -6.57,4.224 -7.132,4.121 -7.646,3.892 -8.167,3.674 -8.62,3.377 -9.009,2.987 -9.409,2.61 -9.719,2.163 -9.941,1.648 -10.159,1.145 -10.268,0.595 -10.268,0 v -14.206 c 0,-0.584 0.109,-1.145 0.327,-1.648 0.222,-0.515 0.532,-0.961 0.932,-1.351 0.389,-0.389 0.842,-0.698 1.363,-0.915 0.514,-0.218 1.076,-0.321 1.67,-0.321 h 1.683 c 0.607,0 1.162,0.103 1.678,0.321 0.526,0.217 0.967,0.526 1.362,0.915 0.383,0.39 0.681,0.836 0.915,1.351 C -0.12,-15.351 0,-14.79 0,-14.206 Z m 1.9,-16.735 c -0.343,-0.79 -0.812,-1.465 -1.414,-2.061 -0.606,-0.595 -1.298,-1.064 -2.1,-1.396 -0.795,-0.332 -1.649,-0.504 -2.565,-0.504 h -1.899 c -0.916,0 -1.775,0.172 -2.581,0.504 -0.802,0.332 -1.5,0.801 -2.101,1.396 -0.59,0.596 -1.07,1.271 -1.414,2.061 -0.344,0.79 -0.509,1.636 -0.509,2.529 V 0 c 0,0.904 0.165,1.739 0.509,2.529 0.344,0.79 0.824,1.478 1.414,2.061 0.601,0.596 1.299,1.064 2.101,1.397 0.806,0.343 1.665,0.515 2.581,0.515 h 1.899 c 0.916,0 1.77,-0.172 2.565,-0.515 C -0.812,5.654 -0.12,5.186 0.486,4.59 1.088,4.007 1.557,3.319 1.9,2.529 2.238,1.739 2.404,0.904 2.404,0 v -14.206 c 0,-0.893 -0.166,-1.739 -0.504,-2.529" /></g><g
           transform="translate(246.3892,20.3075)"
           id="g40"><path
             id="path42"
             style="fill:#ffffff;fill-opacity:1;fill-rule:nonzero;stroke:none"
             d="m 0,0 c 0,0.595 -0.109,1.145 -0.344,1.647 -0.228,0.516 -0.532,0.962 -0.927,1.352 -0.372,0.389 -0.83,0.697 -1.345,0.915 -0.515,0.218 -1.081,0.332 -1.677,0.332 h -5.976 V -6.376 h 5.976 c 0.596,0 1.162,0.114 1.677,0.331 0.515,0.218 0.973,0.527 1.345,0.916 0.395,0.378 0.699,0.824 0.927,1.34 C -0.109,-3.274 0,-2.736 0,-2.142 Z m 0.304,-19.941 -7.276,11.298 h -3.297 v -11.298 h -2.419 V 6.523 h 8.509 c 0.91,0 1.77,-0.17 2.559,-0.513 C -0.813,5.666 -0.109,5.208 0.48,4.612 1.082,4.029 1.539,3.33 1.889,2.541 2.232,1.751 2.404,0.893 2.404,0 v -2.142 c 0,-0.892 -0.172,-1.739 -0.515,-2.529 -0.35,-0.79 -0.807,-1.488 -1.409,-2.071 -0.589,-0.596 -1.293,-1.054 -2.1,-1.398 -0.789,-0.342 -1.649,-0.503 -2.559,-0.503 l 7.281,-11.298 z" /></g><g
           transform="translate(286.1441,20.6962)"
           id="g44"><path
             id="path46"
             style="fill:#ffffff;fill-opacity:1;fill-rule:nonzero;stroke:none"
             d="m 0,0 c 0,0.595 -0.108,1.145 -0.332,1.648 -0.229,0.515 -0.532,0.962 -0.916,1.339 -0.389,0.39 -0.847,0.687 -1.356,0.905 -0.527,0.229 -1.082,0.332 -1.677,0.332 h -1.683 c -0.6,0 -1.155,-0.103 -1.677,-0.332 C -8.15,3.674 -8.613,3.377 -9.009,2.987 -9.397,2.61 -9.707,2.163 -9.936,1.648 -10.153,1.145 -10.268,0.595 -10.268,0 v -14.206 c 0,-0.584 0.115,-1.145 0.332,-1.648 0.229,-0.515 0.539,-0.961 0.927,-1.351 0.396,-0.389 0.859,-0.698 1.368,-0.915 0.522,-0.218 1.077,-0.321 1.677,-0.321 h 1.683 c 0.595,0 1.15,0.103 1.677,0.321 0.509,0.217 0.967,0.526 1.356,0.915 0.384,0.39 0.687,0.836 0.916,1.351 0.224,0.503 0.332,1.064 0.332,1.648 z m 1.9,-16.735 c -0.343,-0.79 -0.813,-1.465 -1.42,-2.061 -0.588,-0.595 -1.298,-1.064 -2.083,-1.396 -0.801,-0.332 -1.654,-0.504 -2.569,-0.504 h -1.912 c -0.91,0 -1.769,0.172 -2.564,0.504 -0.801,0.332 -1.505,0.801 -2.107,1.396 -0.6,0.596 -1.069,1.271 -1.413,2.061 -0.344,0.79 -0.516,1.636 -0.516,2.529 V 0 c 0,0.904 0.172,1.739 0.516,2.529 0.344,0.79 0.813,1.478 1.413,2.061 0.602,0.596 1.306,1.064 2.107,1.397 0.795,0.343 1.654,0.515 2.564,0.515 h 1.912 c 0.915,0 1.768,-0.172 2.569,-0.515 C -0.818,5.654 -0.108,5.186 0.48,4.59 1.087,4.007 1.557,3.319 1.9,2.529 2.237,1.739 2.415,0.904 2.415,0 v -14.206 c 0,-0.893 -0.178,-1.739 -0.515,-2.529" /></g><g
           transform="translate(328.2691,3.9609)"
           id="g48"><path
             id="path50"
             style="fill:#ffffff;fill-opacity:1;fill-rule:nonzero;stroke:none"
             d="m 0,0 c -0.344,-0.79 -0.818,-1.465 -1.408,-2.061 -0.596,-0.594 -1.299,-1.064 -2.101,-1.396 -0.796,-0.332 -1.648,-0.504 -2.563,-0.504 h -1.902 c -0.909,0 -1.767,0.172 -2.569,0.504 -0.812,0.332 -1.511,0.802 -2.112,1.396 -0.595,0.596 -1.07,1.271 -1.413,2.061 -0.344,0.79 -0.516,1.637 -0.516,2.529 v 14.206 c 0,0.905 0.172,1.74 0.516,2.53 0.343,0.79 0.818,1.477 1.413,2.06 0.601,0.596 1.3,1.065 2.112,1.398 0.802,0.342 1.66,0.514 2.569,0.514 h 1.902 c 0.915,0 1.767,-0.172 2.563,-0.514 0.802,-0.333 1.505,-0.802 2.101,-1.398 0.59,-0.583 1.064,-1.27 1.408,-2.06 0.343,-0.79 0.521,-1.625 0.521,-2.53 v -1.076 l -2.41,-0.354 v 1.43 c 0,0.595 -0.115,1.145 -0.349,1.649 -0.223,0.514 -0.527,0.962 -0.916,1.339 -0.377,0.389 -0.835,0.686 -1.356,0.904 -0.515,0.229 -1.076,0.332 -1.672,0.332 h -1.682 c -0.596,0 -1.157,-0.103 -1.677,-0.332 -0.516,-0.218 -0.968,-0.515 -1.356,-0.904 -0.396,-0.377 -0.705,-0.825 -0.934,-1.339 -0.223,-0.504 -0.331,-1.054 -0.331,-1.649 V 2.529 c 0,-0.584 0.108,-1.144 0.331,-1.647 0.229,-0.516 0.538,-0.962 0.934,-1.352 0.388,-0.388 0.84,-0.698 1.356,-0.915 0.52,-0.218 1.081,-0.321 1.677,-0.321 h 1.682 c 0.596,0 1.157,0.103 1.672,0.321 0.521,0.217 0.979,0.527 1.356,0.915 0.389,0.39 0.693,0.836 0.916,1.352 0.234,0.503 0.349,1.063 0.349,1.647 V 3.972 L 0.521,3.571 V 2.529 C 0.521,1.637 0.343,0.79 0,0" /></g><g
           transform="translate(368.1041,3.9609)"
           id="g52"><path
             id="path54"
             style="fill:#ffffff;fill-opacity:1;fill-rule:nonzero;stroke:none"
             d="m 0,0 c -0.343,-0.79 -0.818,-1.465 -1.413,-2.061 -0.602,-0.594 -1.294,-1.064 -2.096,-1.396 -0.795,-0.332 -1.653,-0.504 -2.557,-0.504 h -1.907 c -0.916,0 -1.768,0.172 -2.575,0.504 -0.807,0.332 -1.506,0.802 -2.1,1.396 -0.602,0.596 -1.077,1.271 -1.409,2.061 -0.354,0.79 -0.52,1.637 -0.52,2.529 v 14.206 c 0,0.905 0.166,1.74 0.52,2.53 0.332,0.79 0.807,1.477 1.409,2.06 0.594,0.596 1.293,1.065 2.1,1.398 0.807,0.342 1.659,0.514 2.575,0.514 h 1.907 c 0.904,0 1.762,-0.172 2.557,-0.514 0.802,-0.333 1.494,-0.802 2.096,-1.398 0.595,-0.583 1.07,-1.27 1.413,-2.06 0.344,-0.79 0.516,-1.625 0.516,-2.53 v -1.076 l -2.421,-0.354 v 1.43 c 0,0.595 -0.11,1.145 -0.327,1.649 -0.229,0.514 -0.533,0.962 -0.921,1.339 -0.384,0.389 -0.836,0.686 -1.351,0.904 -0.52,0.229 -1.076,0.332 -1.677,0.332 h -1.682 c -0.602,0 -1.163,-0.103 -1.672,-0.332 -0.527,-0.218 -0.985,-0.515 -1.362,-0.904 -0.401,-0.377 -0.705,-0.825 -0.939,-1.339 -0.218,-0.504 -0.326,-1.054 -0.326,-1.649 V 2.529 c 0,-0.584 0.108,-1.144 0.326,-1.647 0.234,-0.516 0.538,-0.962 0.939,-1.352 0.377,-0.388 0.835,-0.698 1.362,-0.915 0.509,-0.218 1.07,-0.321 1.672,-0.321 h 1.682 c 0.601,0 1.157,0.103 1.677,0.321 0.515,0.217 0.967,0.527 1.351,0.915 0.388,0.39 0.692,0.836 0.921,1.352 0.217,0.503 0.327,1.063 0.327,1.647 V 3.972 L 0.516,3.571 V 2.529 C 0.516,1.637 0.344,0.79 0,0" /></g><g
           transform="translate(406.0455,20.6962)"
           id="g56"><path
             id="path58"
             style="fill:#ffffff;fill-opacity:1;fill-rule:nonzero;stroke:none"
             d="M 0,0 C 0,0.595 -0.121,1.145 -0.344,1.648 -0.562,2.163 -0.87,2.61 -1.254,2.987 -1.648,3.377 -2.101,3.674 -2.61,3.892 -3.131,4.121 -3.687,4.224 -4.282,4.224 h -1.683 c -0.6,0 -1.161,-0.103 -1.682,-0.332 C -8.162,3.674 -8.608,3.377 -9.003,2.987 -9.398,2.61 -9.719,2.163 -9.931,1.648 -10.159,1.145 -10.268,0.595 -10.268,0 v -14.206 c 0,-0.584 0.109,-1.145 0.337,-1.648 0.212,-0.515 0.533,-0.961 0.928,-1.351 0.395,-0.389 0.841,-0.698 1.356,-0.915 0.521,-0.218 1.082,-0.321 1.682,-0.321 h 1.683 c 0.595,0 1.151,0.103 1.672,0.321 0.509,0.217 0.962,0.526 1.356,0.915 0.384,0.39 0.692,0.836 0.91,1.351 0.223,0.503 0.344,1.064 0.344,1.648 z m 1.899,-16.735 c -0.354,-0.79 -0.812,-1.465 -1.419,-2.061 -0.601,-0.595 -1.293,-1.064 -2.083,-1.396 -0.807,-0.332 -1.66,-0.504 -2.564,-0.504 h -1.918 c -0.91,0 -1.768,0.172 -2.569,0.504 -0.807,0.332 -1.505,0.801 -2.101,1.396 -0.606,0.596 -1.07,1.271 -1.408,2.061 -0.355,0.79 -0.521,1.636 -0.521,2.529 V 0 c 0,0.904 0.166,1.739 0.521,2.529 0.338,0.79 0.802,1.478 1.408,2.061 0.596,0.596 1.294,1.064 2.101,1.397 0.801,0.343 1.659,0.515 2.569,0.515 h 1.918 c 0.904,0 1.757,-0.172 2.564,-0.515 C -0.813,5.654 -0.121,5.186 0.48,4.59 1.087,4.007 1.545,3.319 1.899,2.529 2.243,1.739 2.409,0.904 2.409,0 v -14.206 c 0,-0.893 -0.166,-1.739 -0.51,-2.529" /></g><g
           transform="translate(507.8482,72.5165)"
           id="g60"><path
             id="path62"
             style="fill:#ffffff;fill-opacity:1;fill-rule:nonzero;stroke:none"
             d="m 0,0 c -7.309,-10.897 -19.74,-18.063 -33.837,-18.063 -22.487,0 -40.723,18.235 -40.723,40.728 0,22.481 18.236,40.716 40.723,40.716 14.097,0 26.528,-7.165 33.837,-18.051 h 10.589 c -8.26,16.14 -25.052,27.186 -44.426,27.186 -27.536,0 -49.857,-22.322 -49.857,-49.851 0,-27.542 22.321,-49.863 49.857,-49.863 19.374,0 36.166,11.058 44.426,27.198 z" /></g><g
           transform="translate(507.8482,27.1982)"
           id="g64"><path
             id="path66"
             style="fill:#f5821f;fill-opacity:1;fill-rule:nonzero;stroke:none"
             d="m 0,0 c -7.309,-10.887 -19.74,-18.063 -33.837,-18.063 -22.487,0 -40.723,18.234 -40.723,40.716 0,22.493 18.236,40.728 40.723,40.728 14.097,0 26.528,-7.177 33.837,-18.063 h 10.589 c -8.26,16.14 -25.052,27.198 -44.426,27.198 -27.536,0 -49.857,-22.321 -49.857,-49.863 0,-27.53 22.321,-49.851 49.857,-49.851 19.374,0 36.166,11.047 44.426,27.198 z" /></g><g
           transform="translate(435.5953,63.393)"
           id="g68"><path
             id="path70"
             style="fill:#8cc63f;fill-opacity:1;fill-rule:nonzero;stroke:none"
             d="M 0,0 C 1.156,3.24 2.69,6.318 4.579,9.124 2.69,11.939 1.156,15.007 0,18.247 -2.318,15.453 -4.333,12.386 -5.998,9.124 -4.333,5.85 -2.318,2.804 0,0" /></g><g
           transform="translate(534.1304,99.7143)"
           id="g72"><path
             id="path74"
             style="fill:#f5821f;fill-opacity:1;fill-rule:nonzero;stroke:none"
             d="m 0,0 h 9.615 v -91.014 h 39.773 v -8.7 H 0 Z" /></g><g
           transform="translate(599.5728,99.7143)"
           id="g76"><path
             id="path78"
             style="fill:#f5821f;fill-opacity:1;fill-rule:nonzero;stroke:none"
             d="M 0,0 H 52.507 V -8.711 H 9.615 v -38.233 h 41.466 v -8.711 H 9.615 v -35.359 h 42.892 v -8.7 H 0 Z" /></g><g
           transform="translate(716.2798,88.6679)"
           id="g80"><path
             id="path82"
             style="fill:#f5821f;fill-opacity:1;fill-rule:nonzero;stroke:none"
             d="M 0,0 -38.102,-88.668 H -48.501 L -5.34,11.046 H 5.322 L 48.368,-88.668 H 37.98 Z" /></g><g
           transform="translate(780.3599,99.7143)"
           id="g84"><path
             id="path86"
             style="fill:#f5821f;fill-opacity:1;fill-rule:nonzero;stroke:none"
             d="m 0,0 h 22.87 c 9.101,0 19.237,-0.137 27.296,-4.682 9.741,-5.586 14.943,-15.464 14.943,-26.648 0,-15.728 -12.746,-28.458 -28.325,-28.858 l 30.14,-39.526 H 54.956 L 19.23,-52.518 h 2.862 c 6.76,0 14.56,-0.252 20.925,2.61 7.927,3.628 12.483,10.908 12.483,19.493 0,6.628 -3.509,13.382 -8.975,17.16 -6.37,4.544 -14.165,4.544 -21.709,4.544 H 9.615 V -99.714 H 0 Z" /></g><g
           transform="translate(-4e-4,145.0326)"
           id="g88"><path
             id="path90"
             style="fill:#ffffff;fill-opacity:1;fill-rule:nonzero;stroke:none"
             d="M 0,0 H 14.658 L 49.377,-80.873 83.958,0 H 98.61 v -99.714 h -9.512 v 89.172 L 53.354,-95.009 H 45.256 L 9.519,-10.542 V -99.714 H 0 Z" /></g><g
           transform="translate(124.5992,45.3183)"
           id="g92"><path
             id="path94"
             style="fill:#ffffff;fill-opacity:1;fill-rule:nonzero;stroke:none"
             d="M 0,0 H -10.279 L 32.652,99.714 H 43.195 L 86.241,0 H 75.962 L 37.924,88.794 Z" /></g><g
           transform="translate(226.5406,145.0326)"
           id="g96"><path
             id="path98"
             style="fill:#ffffff;fill-opacity:1;fill-rule:nonzero;stroke:none"
             d="m 0,0 h 22.636 c 8.997,0 19.036,-0.126 26.997,-4.625 9.638,-5.528 14.79,-15.292 14.79,-26.362 0,-15.556 -12.597,-28.159 -28.028,-28.537 l 30.278,-40.19 H 54.836 l -35.801,47.779 h 2.828 c 6.685,0 14.401,-0.263 20.708,2.564 7.84,3.606 12.333,10.806 12.333,19.288 0,6.56 -3.468,13.245 -8.871,16.977 -6.302,4.498 -14.016,4.498 -21.469,4.498 H 9.529 V -99.714 H 0 Z" /></g><g
           transform="translate(357.5504,135.8979)"
           id="g100"><path
             id="path102"
             style="fill:#ffffff;fill-opacity:1;fill-rule:nonzero;stroke:none"
             d="m 0,0 c -22.705,-0.126 -41.363,-18.407 -41.363,-41.117 0,-22.31 19.442,-40.19 41.363,-40.19 22.717,0 41.237,18.143 41.237,40.98 0,22.321 -19.178,40.201 -41.237,40.201 z m 50.904,-40.327 c 0,-28.057 -23.105,-50.253 -51.03,-50.253 -27.015,0 -50.899,21.796 -50.899,49.463 0,28.068 22.963,50.252 50.899,50.252 27.278,0 51.03,-21.795 51.03,-49.462" /></g></g></g></g></svg>